<svg xmlns="http://www.w3.org/2000/svg" viewBox="0 0 1218.2 363.1"><defs><style>.a{fill:none;stroke:#ff931e;stroke-miterlimit:10;stroke-width:7px;}.b{font-size:154px;font-family:Nunito-Light, Nunito;font-weight:300;}.b,.d,.g{fill:#ff931e;}.c{letter-spacing:-0.04em;}.d{font-size:73.53px;font-family:Nunito-ExtraLight, Nunito;font-weight:200;}.e{letter-spacing:0em;}.f{letter-spacing:0.01em;}</style></defs><path class="a" d="M596.7,359.4c-65.4,0-130.8-.4-196.1.2s-130.7-35.5-143.1-94.5,37.7-116.3,113.4-127.5c10.9-1.6,17.1-4.4,22.2-13,21.7-37.2,67.6-58.1,119.2-54.5,10.8.7,15.2-1.7,20.7-8.2C561.2,28.2,601.1,9.2,652.1,4.4c76.6-7.3,153.4,32.6,174,95.4,1.5,4.8,4.1,6.2,9.5,7.4,65.7,15.2,106.6,49.5,119.4,102.4,16.5,68.5-44.3,135.6-131.9,148a227.2,227.2,0,0,1-32,1.9Z"/><text class="b" transform="translate(495.8 237.1)">I<tspan class="c" x="37.6" y="0">O</tspan><tspan x="147.2" y="0">T</tspan></text><text class="d" transform="translate(357.9 314.3)">D<tspan class="e" x="53.3" y="0">e</tspan><tspan class="f" x="91.5" y="0">v</tspan><tspan x="129.3" y="0">ice manager</tspan></text><path class="g" d="M69.6,347c-1.3-1.2-2.4-2.5-3.5-3.7-3.2-3.4-6.2-7-9.1-10.7l-1.4-1.7c-.5-.7.6.7.4.4l-.4-.4a8.6,8.6,0,0,0-.7-1c-1.1-1.4-2.1-2.7-3-4.1-2.3-3-4.4-6.1-6.5-9.3a243.9,243.9,0,0,1-13.2-22.7c-2.2-4.4-4.3-8.9-6.3-13.4l-.3-.8c-.4-.8.4,1,.1.1a10.8,10.8,0,0,1-.8-1.9l-1.5-3.6-2.7-7.3a202.3,202.3,0,0,1-8.3-32.6c-.3-1.5-.5-2.9-.7-4.3s-.1-.7-.1-1,.1.9,0-.1l-.3-2.3q-.6-4.5-.9-9c-.4-6.2-.5-12.5-.3-18.7q.2-4.8.6-9.6c.1-1.6.3-3.2.5-4.9l.3-2.4c0-.4.1-.8.1-1.2-.1,1.2,0-.1.1-.5a200.3,200.3,0,0,1,4-20.2c1.9-7.1,4.1-14.1,6.7-21l2.1-5.3.5-1.2c.2-.6,0,.1-.1.2a3.6,3.6,0,0,0,.4-.9l1.2-2.6c1.6-3.8,3.4-7.4,5.2-11a251.4,251.4,0,0,1,12.7-22c2.5-3.8,5-7.5,7.6-11.1s5.5-7.4,8.3-10.9,6.1-7.5,9.3-11.2a5.1,5.1,0,0,0,0-7c-1.9-1.8-5.3-2.1-7.1,0A299,299,0,0,0,29,102.3,230.5,230.5,0,0,0,9.2,146.5,201.6,201.6,0,0,0,.7,188.6a189,189,0,0,0,.5,37.6,207,207,0,0,0,7.2,35,215.7,215.7,0,0,0,11.7,30.5,238.4,238.4,0,0,0,13.2,24.4,223,223,0,0,0,12.9,18.8c3.5,4.6,7.1,9.1,10.9,13.4,1.7,1.9,3.3,3.8,5.1,5.5l.3.2a5,5,0,0,0,7.1-7Z"/><path class="g" d="M135.7,307.6a35.8,35.8,0,0,1-2.6-2.9l-2.9-3.3-1.8-2.2-1-1.2-.4-.6-.3-.3.4.5a192.3,192.3,0,0,1-18.9-30.1c-1.6-3.3-3.2-6.5-4.6-9.9-.1-.3-.5-1.2.1.3a1.4,1.4,0,0,1-.2-.6l-.6-1.4-1.1-2.7c-.7-1.8-1.4-3.7-2-5.6a142,142,0,0,1-6.1-23.9c-.2-1.1-.4-2.2-.5-3.2s-.3-2.2-.1-.5a11,11,0,0,1-.2-1.8c-.3-2.2-.5-4.4-.7-6.6a127.1,127.1,0,0,1-.2-13.8c.1-2.3.2-4.5.4-6.8s.2-2.4.4-3.6a8.8,8.8,0,0,1,.2-1.6c0-.3.2-1.5,0,0,0-.3.1-.7.1-1a125.2,125.2,0,0,1,3-14.8,158.9,158.9,0,0,1,5-15.2l.7-1.8.3-.7c.1-.2.5-1.4.1-.2.5-1.3,1.1-2.6,1.7-3.8,1.2-2.7,2.5-5.3,3.8-7.9a170.5,170.5,0,0,1,9.6-15.8c1.8-2.7,3.7-5.4,5.7-8l.5-.7c.1-.1,1-1.3.4-.4a13.3,13.3,0,0,1,1.4-1.9l3.4-4.2c2.3-2.7,4.6-5.3,7-7.9a5,5,0,0,0-7.1-7c-17.3,18.8-31.7,40.5-39.8,64.9a136.6,136.6,0,0,0-6,58.5A159.7,159.7,0,0,0,97,267.1a188.5,188.5,0,0,0,19.3,32.7,154.9,154.9,0,0,0,12.1,14.7c.1,0,.1.1.2.2,1.9,1.8,5.3,2,7.1,0a5.2,5.2,0,0,0,0-7.1Z"/><path class="g" d="M201.8,267.3c-2.1-1.9-4.1-4.1-6-6.2s-1.9-2.3-2.8-3.4l-.7-1c-.5-.5.8,1.1.3.5l-.4-.6-1.6-2.1a104.7,104.7,0,0,1-6.3-10,65.4,65.4,0,0,1-3-5.9l-1.5-3.2c.2.5.5,1,.2.3l-.4-.8a13.4,13.4,0,0,0-.7-1.8,90.5,90.5,0,0,1-4-14.4l-.3-1.8c0-.3-.1-.7-.1-1a.6.6,0,0,1-.1-.4c-.1-.6.2,1.3.1.4s-.3-2.7-.4-4a57.9,57.9,0,0,1-.2-8.3c0-1.5.1-3,.2-4.4l.3-2c0-.4.1-.8.1-1.1v.5a1.9,1.9,0,0,0,.1-.8c.5-3,1.2-6.1,2-9.1a84.5,84.5,0,0,1,3.1-9.3,4.3,4.3,0,0,0,.5-1.2c0,.1-.5,1.1-.1.2a.8.8,0,0,0,.2-.5l1.2-2.5c.8-1.7,1.6-3.3,2.5-4.9a102.7,102.7,0,0,1,6.1-10c1.1-1.7,2.4-3.4,3.6-5,.1-.1.6-.9.3-.4l.2-.2a11.3,11.3,0,0,1,1-1.3l2.2-2.7,4.5-5.1a5,5,0,0,0-7.1-7.1c-11.3,12.3-20.8,26.4-26.3,42.2a83.1,83.1,0,0,0-4,36.7,95.7,95.7,0,0,0,9.4,30.5,112.9,112.9,0,0,0,13.3,20.1,71,71,0,0,0,7.5,8h.1c2,1.8,5.2,2.1,7.1,0s2.1-5.2,0-7Z"/><path class="g" d="M1148.6,62.6c1.2,1.2,2.4,2.4,3.5,3.7,3.2,3.4,6.2,7,9.1,10.6l1.3,1.8c.6.7-.5-.7-.3-.4l.3.4.8,1,3,4.1c2.2,3,4.4,6.1,6.4,9.3a223.5,223.5,0,0,1,13.2,22.7c2.3,4.4,4.4,8.9,6.3,13.4a5.9,5.9,0,0,1,.4.8c.3.8-.4-1-.1-.1s.5,1.2.8,1.9l1.4,3.5c1,2.5,1.9,5,2.7,7.4a202.6,202.6,0,0,1,8.4,32.6c.2,1.5.5,2.9.7,4.3s.1.7.1,1-.1-.9,0,.1l.3,2.3c.4,3,.6,6,.8,9a166.8,166.8,0,0,1,.4,18.7q-.1,4.8-.6,9.6c-.1,1.6-.3,3.2-.5,4.9l-.3,2.4c0,.4-.1.8-.1,1.1s-.1.2-.1.6a176.3,176.3,0,0,1-4.1,20.2,196.4,196.4,0,0,1-6.6,21l-2.1,5.3a6.1,6.1,0,0,0-.5,1.2c-.3.5,0-.1,0-.2l-.3.9-1.2,2.6c-1.6,3.7-3.4,7.4-5.2,11a251.4,251.4,0,0,1-12.7,22c-2.5,3.8-5,7.5-7.7,11.1s-5.4,7.4-8.2,10.9-6.1,7.5-9.3,11.2c-1.7,1.9-2.1,5.1,0,7s5.3,2.1,7.1,0a299,299,0,0,0,33.5-46.2,228.3,228.3,0,0,0,19.7-44.3,193.2,193.2,0,0,0,8.5-42,175.1,175.1,0,0,0-.5-37.6,200.4,200.4,0,0,0-7.1-35.1,240.3,240.3,0,0,0-25-54.8,223,223,0,0,0-12.9-18.8c-3.4-4.6-7-9.1-10.8-13.4-1.7-1.9-3.4-3.8-5.2-5.5l-.2-.2a5,5,0,0,0-7.1,0,5,5,0,0,0,0,7Z"/><path class="g" d="M1082.5,102l2.6,2.8,2.9,3.4,1.8,2.2,1,1.2.4.6.2.3c.6.7-.8-1.1-.3-.5a192.3,192.3,0,0,1,18.9,30.1c1.6,3.3,3.1,6.5,4.6,9.9.1.3.5,1.2-.1-.3a1.4,1.4,0,0,0,.2.6l.6,1.4,1,2.7,2.1,5.6a152.3,152.3,0,0,1,6.1,23.9c.2,1.1.4,2.2.5,3.2s.3,2.2.1.5a11,11,0,0,0,.2,1.8q.5,3.3.6,6.6a127.1,127.1,0,0,1,.3,13.8c-.1,2.3-.2,4.5-.4,6.8s-.3,2.4-.4,3.6-.1,1.1-.2,1.6-.2,1.5,0,0c0,.3-.1.7-.1,1a149.6,149.6,0,0,1-3.1,14.8,134.5,134.5,0,0,1-4.9,15.2c-.3.6-.5,1.2-.7,1.7l-.3.7c-.1.3-.6,1.5-.1.3-.5,1.3-1.1,2.6-1.7,3.8q-1.8,4.1-3.9,7.8a142,142,0,0,1-9.5,15.9c-1.8,2.7-3.7,5.3-5.7,8l-.6.7c0,.1-.9,1.3-.3.4l-1.4,1.9-3.5,4.2c-2.2,2.7-4.5,5.3-6.9,7.9a4.9,4.9,0,0,0,0,7,5,5,0,0,0,7.1,0c17.3-18.8,31.7-40.5,39.7-64.9a136.6,136.6,0,0,0,6-58.5,162.4,162.4,0,0,0-14.1-49.2,182.9,182.9,0,0,0-19.4-32.7c-3.7-5-7.6-10.3-12.1-14.7v-.2c-1.9-1.8-5.3-2-7.1,0a5,5,0,0,0,0,7.1Z"/><path class="g" d="M1016.4,142.3a68.8,68.8,0,0,1,5.9,6.2l2.9,3.4a6.1,6.1,0,0,0,.7,1l-.4-.5.5.6,1.6,2.1c2.2,3.2,4.4,6.6,6.3,10s2.1,3.9,3,5.9l1.4,3.2c-.2-.5-.4-1-.1-.3l.3.8a13.4,13.4,0,0,1,.7,1.8,81.4,81.4,0,0,1,4.1,14.4l.3,1.8c0,.3.1.6.1,1a.8.8,0,0,0,.1.4c.1.6-.2-1.3-.1-.4s.3,2.7.4,4a76.7,76.7,0,0,1,.2,8.3c-.1,1.5-.1,3-.3,4.4a12.3,12.3,0,0,1-.2,2c0,.4-.1.8-.1,1.1s.1-1.1,0-.5a2.5,2.5,0,0,1-.1.8,73.6,73.6,0,0,1-1.9,9.1c-.9,3.1-1.9,6.2-3.1,9.3-.1.2-.6.9-.5,1.1s.4-1,0-.1a1.7,1.7,0,0,1-.2.5,27.2,27.2,0,0,1-1.1,2.5c-.8,1.7-1.6,3.3-2.5,4.9a102.7,102.7,0,0,1-6.1,10l-3.6,5c-.1.1-.7.8-.3.4s-.2.2-.2.2l-1,1.3-2.2,2.7-4.5,5.1a5,5,0,1,0,7,7.1c11.3-12.3,20.9-26.4,26.4-42.3a81.1,81.1,0,0,0,3.9-36.6,90.9,90.9,0,0,0-9.4-30.5,103,103,0,0,0-13.3-20.1,62.9,62.9,0,0,0-7.5-8v-.2a5.1,5.1,0,0,0-7,0c-1.8,1.9-2.1,5.3,0,7.1Z"/></svg>